<svg xmlns="http://www.w3.org/2000/svg" xmlns:xlink="http://www.w3.org/1999/xlink" version="1.1" x="0px" y="0px" viewBox="0 0 100 100" enable-background="new 0 0 100 100" xml:space="preserve"><path d="M29.368,3.87c-0.269,0-0.49,0.158-0.5,0.426l-1.419,37.577L2.498,41.014c-0.149-0.018-0.293,0.05-0.392,0.162  c-0.099,0.112-0.143,0.259-0.119,0.407L2.3,43.53c0.024,0.149,0.114,0.278,0.245,0.353l0.97,0.556l0.684,1.311  c0.017,0.032,0.037,0.063,0.06,0.09l1.583,1.888c0.051,0.061,0.115,0.108,0.188,0.139l0.958,0.408l1.155,1.743  c0.021,0.032,0.046,0.062,0.074,0.088l3.127,2.943c0.03,0.027,0.063,0.052,0.098,0.071l2.176,1.223l1.44,3.051l0.315,2.54  c0.007,0.058,0.024,0.113,0.05,0.165l2.011,3.959c0.042,0.083,0.106,0.152,0.186,0.2l7.49,4.568c0.07,0.042,0.148,0.067,0.23,0.072  l2.274,0.143c0.149,0.017,0.296-0.049,0.398-0.159l1.015-1.096c0.042-0.046,0.076-0.1,0.099-0.158l0.667-1.662L31.379,63h1.444  c0.122,0,0.24-0.1,0.331-0.18l0.839-0.769l4.152,1c0.064,0.016,0.131,0.013,0.196,0.002l0.92-0.147l4.022,3.655l2.888,5.413  l1.62,2.882l6.096,7.117l0.529,3.833c0.016,0.116,0.072,0.224,0.16,0.303l1.166,1.052l1.926,3.973  c0.05,0.102,0.132,0.184,0.233,0.232l4.385,2.101l4.926,1.397l3.549,1.592c0.066,0.03,0.136,0.044,0.205,0.044  c0.171,0,0.337-0.089,0.43-0.244l1.18-1.98c0.087-0.146,0.094-0.328,0.017-0.48l-1.76-3.502l-0.742-3.75l1.616-5.318l1.752-3.439  l4.212-3.945l8.626-4.837c0.036-0.021,0.068-0.044,0.099-0.072l2.428-2.291l5.73-3.959l1.801-0.546  c0.248-0.075,0.397-0.328,0.344-0.581l-0.191-0.91l1.254-2.194c0.05-0.088,0.072-0.189,0.063-0.29l-0.331-3.909l0.996-4.754  c0.024-0.116,0.007-0.238-0.051-0.342l-1.984-3.619l-0.568-1.812c-0.016-0.048-0.038-0.094-0.066-0.135l-1.256-1.816L92.998,28.83  c-0.032-0.268-0.291-0.459-0.537-0.438l-1.884,0.155l-5.527-3.351c-0.18-0.108-0.408-0.094-0.572,0.038l-1.094,0.879l-1.09-0.26  c-0.103-0.025-0.212-0.015-0.31,0.025l-1.669,0.7l-0.356-0.317c-0.163-0.146-0.403-0.167-0.589-0.055l-2.612,1.567l-4.012-1.947  c-0.126-0.061-0.271-0.067-0.4-0.016l-2.811,1.093L67.53,25.74c-0.17-0.099-0.382-0.088-0.542,0.025l-0.977,0.7l-1.15-1.862  c-0.095-0.153-0.259-0.24-0.444-0.237l-2.676,0.102l-0.534-0.214c-0.097-0.038-0.201-0.047-0.303-0.022l-1.553,0.374l-1.53-0.908  c-0.119-0.07-0.26-0.089-0.392-0.051l-0.383,0.109l-1.295-2.006c-0.119-0.184-0.347-0.27-0.552-0.211l-2.317,0.576L51,20.445V4"></path></svg>