<?xml version="1.0" encoding="UTF-8"?>
<svg width="185px" height="185px" viewBox="0 0 185 185" version="1.1" xmlns="http://www.w3.org/2000/svg" xmlns:xlink="http://www.w3.org/1999/xlink">
    <!-- Generator: Sketch 42 (36781) - http://www.bohemiancoding.com/sketch -->
    <title>tshape</title>
    <desc>Created with Sketch.</desc>
    <defs></defs>
    <g id="Page-1" stroke="none" stroke-width="1" fill="none" fill-rule="evenodd">
        <g id="Artboard" transform="translate(-17.000000, -16.000000)">
            <g id="Group" transform="translate(20.000000, 19.000000)" fill-opacity="0.650000036" fill="#969696">
                <path d="M128.676157,139.505338 C100.883065,139.505338 78.3523132,116.974586 78.3523132,89.1814947 C78.3523132,61.3884034 100.883065,38.8576512 128.676157,38.8576512 C156.469248,38.8576512 179,61.3884034 179,89.1814947 C179,116.974586 156.469248,139.505338 128.676157,139.505338 Z M128.676157,136.989146 C149.752584,136.989146 166.838405,115.491053 166.838405,88.971812 C166.838405,62.4525707 149.752584,40.9544781 128.676157,40.9544781 C107.599729,40.9544781 90.5139087,62.4525707 90.5139087,88.971812 C90.5139087,115.491053 107.599729,136.989146 128.676157,136.989146 Z" id="Combined-Shape" transform="translate(128.676157, 89.181495) rotate(-270.000000) translate(-128.676157, -89.181495) "></path>
                <path d="M50.3238434,139.505338 C22.5307521,139.505338 -7.10542736e-15,116.974586 -7.10542736e-15,89.1814947 C-7.10542736e-15,61.3884034 22.5307521,38.8576512 50.3238434,38.8576512 C78.1169347,38.8576512 100.647687,61.3884034 100.647687,89.1814947 C100.647687,116.974586 78.1169347,139.505338 50.3238434,139.505338 Z M50.3238434,136.989146 C71.400271,136.989146 88.4860913,115.491053 88.4860913,88.971812 C88.4860913,62.4525707 71.400271,40.9544781 50.3238434,40.9544781 C29.2474159,40.9544781 12.1615955,62.4525707 12.1615955,88.971812 C12.1615955,115.491053 29.2474159,136.989146 50.3238434,136.989146 Z" id="Combined-Shape" transform="translate(50.323843, 89.181495) rotate(-270.000000) translate(-50.323843, -89.181495) "></path>
                <path d="M89.1814947,179 C61.3884034,179 38.8576512,156.469248 38.8576512,128.676157 C38.8576512,100.883065 61.3884034,78.3523132 89.1814947,78.3523132 C116.974586,78.3523132 139.505338,100.883065 139.505338,128.676157 C139.505338,156.469248 116.974586,179 89.1814947,179 Z M89.1814947,176.483808 C110.257922,176.483808 127.343743,154.985715 127.343743,128.466474 C127.343743,101.947233 110.257922,80.44914 89.1814947,80.44914 C68.1050671,80.44914 51.0192467,101.947233 51.0192467,128.466474 C51.0192467,154.985715 68.1050671,176.483808 89.1814947,176.483808 Z" id="Combined-Shape" transform="translate(89.181495, 128.676157) rotate(-540.000000) translate(-89.181495, -128.676157) "></path>
                <path d="M89.1814947,100.647687 C61.3884034,100.647687 38.8576512,78.1169347 38.8576512,50.3238434 C38.8576512,22.5307521 61.3884034,4.26325641e-14 89.1814947,4.26325641e-14 C116.974586,4.26325641e-14 139.505338,22.5307521 139.505338,50.3238434 C139.505338,78.1169347 116.974586,100.647687 89.1814947,100.647687 Z M89.1814947,98.1314947 C110.257922,98.1314947 127.343743,76.633402 127.343743,50.1141607 C127.343743,23.5949195 110.257922,2.09682681 89.1814947,2.09682681 C68.1050671,2.09682681 51.0192467,23.5949195 51.0192467,50.1141607 C51.0192467,76.633402 68.1050671,98.1314947 89.1814947,98.1314947 Z" id="Combined-Shape" transform="translate(89.181495, 50.323843) rotate(-540.000000) translate(-89.181495, -50.323843) "></path>
            </g>
            <g id="Group" transform="translate(325.572114, 108.572114) rotate(-315.000000) translate(-325.572114, -108.572114) translate(236.072114, 19.072114)"></g>
        </g>
    </g>
</svg>