<?xml version="1.0" encoding="UTF-8"?>
<svg width="128px" height="128px" viewBox="0 0 128 128" version="1.1" xmlns="http://www.w3.org/2000/svg" xmlns:xlink="http://www.w3.org/1999/xlink">
    <!-- Generator: Sketch 42 (36781) - http://www.bohemiancoding.com/sketch -->
    <title>logo</title>
    <desc>Created with Sketch.</desc>
    <defs></defs>
    <g id="Logo" stroke="none" stroke-width="1" fill="none" fill-rule="evenodd" fill-opacity="0.8">
        <g id="logo" fill="#D8D8D8">
            <g id="Group" transform="translate(-13.000000, -13.000000)">
                <path d="M56.2299408,96.1156962 C34.2820014,96.1156962 16.489681,78.3233758 16.489681,56.3754364 C16.489681,34.427497 34.2820014,16.6351767 56.2299408,16.6351767 C78.1778802,16.6351767 95.9702005,34.427497 95.9702005,56.3754364 C95.9702005,78.3233758 78.1778802,96.1156962 56.2299408,96.1156962 Z M56.3703657,93.7017859 C73.277259,93.7017859 86.983004,75.6865209 86.983004,56.3754364 C86.983004,37.0643519 73.277259,19.7796636 56.3703657,19.7796636 C39.4634725,19.7796636 25.7577275,37.0643519 25.7577275,56.3754364 C25.7577275,75.6865209 39.4634725,93.7017859 56.3703657,93.7017859 Z" id="Combined-Shape" transform="translate(56.229941, 56.375436) rotate(-45.000000) translate(-56.229941, -56.375436) "></path>
                <path d="M96.6245636,136.510319 C74.6766242,136.510319 56.8843038,118.717999 56.8843038,96.7700592 C56.8843038,74.8221198 74.6766242,57.0297995 96.6245636,57.0297995 C118.572503,57.0297995 136.364823,74.8221198 136.364823,96.7700592 C136.364823,118.717999 118.572503,136.510319 96.6245636,136.510319 Z M96.7649885,134.096409 C113.671882,134.096409 127.377627,116.081144 127.377627,96.7700592 C127.377627,77.4589747 113.671882,60.1742863 96.7649885,60.1742863 C79.8580953,60.1742863 66.1523503,77.4589747 66.1523503,96.7700592 C66.1523503,116.081144 79.8580953,134.096409 96.7649885,134.096409 Z" id="Combined-Shape" transform="translate(96.624564, 96.770059) rotate(-45.000000) translate(-96.624564, -96.770059) "></path>
                <path d="M95.9220484,96.4669538 C73.974109,96.4669538 56.1817886,78.6746334 56.1817886,56.726694 C56.1817886,34.7787546 73.974109,16.9864343 95.9220484,16.9864343 C117.869988,16.9864343 135.662308,34.7787546 135.662308,56.726694 C135.662308,78.6746334 117.869988,96.4669538 95.9220484,96.4669538 Z M96.0624733,94.0530435 C112.969367,94.0530435 126.675112,76.0377785 126.675112,56.726694 C126.675112,37.4156095 112.969367,20.1309212 96.0624733,20.1309212 C79.1555801,20.1309212 65.4498351,37.4156095 65.4498351,56.726694 C65.4498351,76.0377785 79.1555801,94.0530435 96.0624733,94.0530435 Z" id="Combined-Shape" transform="translate(95.922048, 56.726694) rotate(-315.000000) translate(-95.922048, -56.726694) "></path>
                <path d="M56.2299408,136.159061 C34.2820014,136.159061 16.489681,118.366741 16.489681,96.4188016 C16.489681,74.4708622 34.2820014,56.6785419 56.2299408,56.6785419 C78.1778802,56.6785419 95.9702005,74.4708622 95.9702005,96.4188016 C95.9702005,118.366741 78.1778802,136.159061 56.2299408,136.159061 Z M56.3703657,133.745151 C73.277259,133.745151 86.983004,115.729886 86.983004,96.4188016 C86.983004,77.1077171 73.277259,59.8230287 56.3703657,59.8230287 C39.4634725,59.8230287 25.7577275,77.1077171 25.7577275,96.4188016 C25.7577275,115.729886 39.4634725,133.745151 56.3703657,133.745151 Z" id="Combined-Shape" transform="translate(56.229941, 96.418802) rotate(-315.000000) translate(-56.229941, -96.418802) "></path>
            </g>
        </g>
    </g>
</svg>