<svg xmlns="http://www.w3.org/2000/svg" version="1.1" width="512" height="230">
<rect x="0" y="0" width="512" height="230" fill="#4b545f" />
<g transform="scale(2.000000) translate(0.5 0.5)">
<polygon fill="#ffffff" fill-opacity="0.501961" points="15,-16 -16,63 163,-3" />
<polygon fill="#f5ffff" fill-opacity="0.501961" points="245,126 148,-16 253,18" />
<polygon fill="#000000" fill-opacity="0.501961" points="154,-5 -16,106 240,130" />
<polygon fill="#00000d" fill-opacity="0.501961" points="97,28 5,130 -16,58" />
<polygon fill="#c9d8e2" fill-opacity="0.501961" points="223,2 213,63 146,-16" />
<polygon fill="#000000" fill-opacity="0.501961" points="192,-16 271,31 252,-16" />
<polygon fill="#c1dae5" fill-opacity="0.501961" points="0,-9 158,-2 54,37" />
<polygon fill="#040e22" fill-opacity="0.501961" points="18,130 121,88 -14,41" />
<polygon fill="#000000" fill-opacity="0.501961" points="258,14 245,130 271,94" />
<polygon fill="#00001a" fill-opacity="0.501961" points="151,104 154,1 242,130" />
<polygon fill="#757e88" fill-opacity="0.501961" points="243,130 189,49 251,82" />
<polygon fill="#655e4e" fill-opacity="0.501961" points="148,33 40,74 87,37" />
<polygon fill="#000d2a" fill-opacity="0.501961" points="18,53 151,2 91,46" />
<polygon fill="#b9d0da" fill-opacity="0.501961" points="-2,14 15,53 96,20" />
<polygon fill="#72828a" fill-opacity="0.501961" points="88,20 42,-1 89,6" />
<polygon fill="#06102e" fill-opacity="0.501961" points="158,28 170,71 39,79" />
<polygon fill="#101726" fill-opacity="0.501961" points="-2,44 124,122 -16,112" />
<polygon fill="#abb7c2" fill-opacity="0.501961" points="235,12 190,-16 240,88" />
<polygon fill="#55646c" fill-opacity="0.501961" points="222,10 245,22 218,20" />
<polygon fill="#000000" fill-opacity="0.501961" points="271,78 246,130 257,25" />
<polygon fill="#2f4155" fill-opacity="0.501961" points="22,93 18,54 47,120" />
<polygon fill="#cadae0" fill-opacity="0.501961" points="54,-8 98,14 167,-2" />
<polygon fill="#4b473e" fill-opacity="0.501961" points="94,96 131,108 124,70" />
<polygon fill="#000000" fill-opacity="0.501961" points="-6,25 8,-1 -16,-1" />
<polygon fill="#555043" fill-opacity="0.501961" points="153,18 40,62 100,57" />
<polygon fill="#070c1f" fill-opacity="0.501961" points="119,130 38,45 44,122" />
<polygon fill="#b1bec5" fill-opacity="0.501961" points="248,31 149,-16 202,69" />
<polygon fill="#0c172f" fill-opacity="0.501961" points="123,13 159,3 204,72" />
<polygon fill="#070912" fill-opacity="0.501961" points="268,-1 271,30 217,-2" />
<polygon fill="#a4b6c2" fill-opacity="0.501961" points="86,-4 -16,47 14,-10" />
<polygon fill="#414b53" fill-opacity="0.501961" points="210,71 232,71 231,79" />
<polygon fill="#89919f" fill-opacity="0.501961" points="253,26 250,82 236,70" />
<polygon fill="#917c4b" fill-opacity="0.501961" points="63,57 55,55 60,70" />
<polygon fill="#11141b" fill-opacity="0.501961" points="39,119 -16,42 15,52" />
<polygon fill="#0f1828" fill-opacity="0.501961" points="75,53 83,29 1,58" />
<polygon fill="#646a72" fill-opacity="0.501961" points="218,96 245,104 249,127" />
<polygon fill="#a3b5bf" fill-opacity="0.501961" points="33,40 16,55 8,17" />
<polygon fill="#010a18" fill-opacity="0.501961" points="194,68 162,123 241,130" />
<polygon fill="#a6b1bd" fill-opacity="0.501961" points="237,95 235,81 204,70" />
<polygon fill="#0f172e" fill-opacity="0.501961" points="91,68 163,73 106,44" />
<polygon fill="#544d39" fill-opacity="0.501961" points="164,130 168,101 160,103" />
<polygon fill="#615a4a" fill-opacity="0.501961" points="139,36 133,26 96,41" />
<polygon fill="#151f38" fill-opacity="0.501961" points="74,33 149,3 110,40" />
<polygon fill="#515c66" fill-opacity="0.501961" points="79,16 71,10 72,2" />
<polygon fill="#000729" fill-opacity="0.501961" points="128,33 137,41 133,30" />
<polygon fill="#bccbd1" fill-opacity="0.501961" points="17,50 88,25 56,2" />
<polygon fill="#a9b6c1" fill-opacity="0.501961" points="200,59 247,39 244,72" />
<polygon fill="#b49854" fill-opacity="0.501961" points="68,60 77,60 68,53" />
<polygon fill="#cead64" fill-opacity="0.501961" points="97,43 102,50 100,52" />
<polygon fill="#3d4753" fill-opacity="0.501961" points="54,5 50,-16 45,-6" />
<polygon fill="#17253e" fill-opacity="0.501961" points="96,20 109,26 82,47" />
<polygon fill="#1d252d" fill-opacity="0.501961" points="216,72 213,70 214,64" />
<polygon fill="#afbbc4" fill-opacity="0.501961" points="216,72 215,15 244,33" />
<polygon fill="#2d3a47" fill-opacity="0.501961" points="240,21 242,28 242,24" />
<polygon fill="#c6d4d9" fill-opacity="0.501961" points="109,-3 84,25 170,-7" />
<polygon fill="#000b25" fill-opacity="0.501961" points="70,50 76,58 84,56" />
<polygon fill="#0f1528" fill-opacity="0.501961" points="39,76 92,130 102,53" />
<polygon fill="#4a463f" fill-opacity="0.501961" points="147,89 110,71 116,90" />
<polygon fill="#323843" fill-opacity="0.501961" points="87,12 87,17 90,9" />
<polygon fill="#b5c2cb" fill-opacity="0.501961" points="149,-1 232,9 187,-16" />
<polygon fill="#0d1525" fill-opacity="0.501961" points="21,51 42,43 83,103" />
<polygon fill="#3d546c" fill-opacity="0.501961" points="19,52 13,52 23,69" />
<polygon fill="#8d7e55" fill-opacity="0.501961" points="112,46 110,33 106,43" />
<polygon fill="#03112a" fill-opacity="0.501961" points="111,42 110,32 120,48" />
<polygon fill="#12192c" fill-opacity="0.501961" points="137,10 171,19 157,122" />
<polygon fill="#01030a" fill-opacity="0.501961" points="255,67 260,115 245,116" />
<polygon fill="#313131" fill-opacity="0.501961" points="91,103 149,76 156,109" />
<polygon fill="#a9b5be" fill-opacity="0.501961" points="225,23 224,77 248,29" />
<polygon fill="#0f1627" fill-opacity="0.501961" points="93,130 84,79 58,57" />
<polygon fill="#ac9358" fill-opacity="0.501961" points="87,51 78,53 84,54" />
<polygon fill="#19253b" fill-opacity="0.501961" points="84,36 103,58 88,26" />
<polygon fill="#938056" fill-opacity="0.501961" points="125,41 120,33 132,37" />
<polygon fill="#978356" fill-opacity="0.501961" points="88,48 97,48 96,54" />
<polygon fill="#2d3842" fill-opacity="0.501961" points="231,20 227,21 228,13" />
<polygon fill="#c9d7db" fill-opacity="0.501961" points="88,11 78,28 54,34" />
<polygon fill="#354d68" fill-opacity="0.501961" points="24,80 36,96 25,68" />
<polygon fill="#161b24" fill-opacity="0.501961" points="43,123 -16,118 14,52" />
<polygon fill="#434c55" fill-opacity="0.501961" points="224,69 216,74 220,67" />
<polygon fill="#1d2534" fill-opacity="0.501961" points="90,57 99,54 84,49" />
<polygon fill="#52616b" fill-opacity="0.501961" points="71,3 71,8 64,10" />
<polygon fill="#081128" fill-opacity="0.501961" points="97,89 102,64 108,95" />
<polygon fill="#7d8787" fill-opacity="0.501961" points="191,47 186,33 171,22" />
<polygon fill="#081126" fill-opacity="0.501961" points="66,41 67,63 59,41" />
<polygon fill="#000d2c" fill-opacity="0.501961" points="119,35 122,48 127,49" />
<polygon fill="#848c98" fill-opacity="0.501961" points="246,112 233,98 251,54" />
<polygon fill="#818893" fill-opacity="0.501961" points="253,23 251,53 245,32" />
<polygon fill="#0f172d" fill-opacity="0.501961" points="105,31 166,17 154,1" />
<polygon fill="#bdcdd3" fill-opacity="0.501961" points="107,17 148,2 75,3" />
<polygon fill="#0e1628" fill-opacity="0.501961" points="198,74 125,37 172,111" />
<polygon fill="#bfd1d9" fill-opacity="0.501961" points="74,8 76,-1 87,-1" />
<polygon fill="#8a7b57" fill-opacity="0.501961" points="138,33 133,28 136,38" />
<polygon fill="#aab8c0" fill-opacity="0.501961" points="211,35 217,75 222,41" />
<polygon fill="#47535d" fill-opacity="0.501961" points="235,24 238,17 234,16" />
<polygon fill="#afbbc3" fill-opacity="0.501961" points="229,47 207,58 236,13" />
<polygon fill="#a8b8c2" fill-opacity="0.501961" points="66,15 15,-11 -16,50" />
<polygon fill="#131a2e" fill-opacity="0.501961" points="130,25 138,74 158,80" />
<polygon fill="#9cafb9" fill-opacity="0.501961" points="-16,22 13,50 33,43" />
<polygon fill="#141c2f" fill-opacity="0.501961" points="105,41 125,64 111,78" />
<polygon fill="#bac7ce" fill-opacity="0.501961" points="188,40 217,27 156,-16" />
<polygon fill="#c7d1d9" fill-opacity="0.501961" points="240,20 237,19 238,22" />
<polygon fill="#9da7b3" fill-opacity="0.501961" points="240,96 230,60 246,69" />
<polygon fill="#5b5343" fill-opacity="0.501961" points="131,110 133,100 138,103" />
<polygon fill="#59636c" fill-opacity="0.501961" points="85,11 79,6 76,9" />
<polygon fill="#c2d1d8" fill-opacity="0.501961" points="76,21 74,10 63,35" />
<polygon fill="#82724b" fill-opacity="0.501961" points="68,52 69,64 73,57" />
<polygon fill="#101729" fill-opacity="0.501961" points="69,57 87,104 102,87" />
<polygon fill="#b2c2c7" fill-opacity="0.501961" points="76,13 79,8 83,12" />
<polygon fill="#847351" fill-opacity="0.501961" points="103,39 104,45 93,42" />
<polygon fill="#b3bfc8" fill-opacity="0.501961" points="224,14 226,35 216,51" />
<polygon fill="#c2d4da" fill-opacity="0.501961" points="71,-16 62,10 91,-16" />
<polygon fill="#000519" fill-opacity="0.501961" points="140,106 103,129 137,125" />
<polygon fill="#717a76" fill-opacity="0.501961" points="186,46 193,45 200,65" />
<polygon fill="#b4c4cd" fill-opacity="0.501961" points="53,39 16,35 49,-2" />
<polygon fill="#aab7bf" fill-opacity="0.501961" points="215,49 188,42 211,69" />
<polygon fill="#838b8a" fill-opacity="0.501961" points="205,62 192,54 213,82" />
<polygon fill="#575044" fill-opacity="0.501961" points="122,94 111,80 124,77" />
<polygon fill="#4d4739" fill-opacity="0.501961" points="134,122 145,120 151,98" />
<polygon fill="#131a2f" fill-opacity="0.501961" points="165,26 128,94 143,27" />
<polygon fill="#8a9698" fill-opacity="0.501961" points="180,23 176,27 166,10" />
<polygon fill="#9cadb3" fill-opacity="0.501961" points="98,9 112,15 107,8" />
<polygon fill="#5d6570" fill-opacity="0.501961" points="85,10 78,13 79,16" />
<polygon fill="#c1d2da" fill-opacity="0.501961" points="85,-10 76,-16 86,13" />
<polygon fill="#162138" fill-opacity="0.501961" points="82,35 100,51 89,32" />
<polygon fill="#182136" fill-opacity="0.501961" points="107,55 116,55 98,40" />
<polygon fill="#172138" fill-opacity="0.501961" points="123,21 105,39 60,39" />
<polygon fill="#e6c471" fill-opacity="0.501961" points="117,40 118,39 117,42" />
<polygon fill="#c7ab61" fill-opacity="0.501961" points="106,44 103,43 101,40" />
<polygon fill="#7a6e51" fill-opacity="0.501961" points="87,42 91,44 88,48" />
<polygon fill="#a99055" fill-opacity="0.501961" points="111,34 117,36 111,36" />
<polygon fill="#897a52" fill-opacity="0.501961" points="68,51 80,62 73,61" />
<polygon fill="#a8b4bd" fill-opacity="0.501961" points="250,38 227,20 225,74" />
<polygon fill="#000719" fill-opacity="0.501961" points="157,103 162,116 143,130" />
<polygon fill="#12192c" fill-opacity="0.501961" points="167,16 194,59 120,75" />
<polygon fill="#09152d" fill-opacity="0.501961" points="121,39 115,26 110,27" />
<polygon fill="#c5a864" fill-opacity="0.501961" points="107,41 108,44 108,38" />
<polygon fill="#839297" fill-opacity="0.501961" points="209,55 221,61 211,59" />
<polygon fill="#10182a" fill-opacity="0.501961" points="28,66 61,37 89,42" />
<polygon fill="#3c3731" fill-opacity="0.501961" points="97,103 119,130 114,106" />
<polygon fill="#9faeb8" fill-opacity="0.501961" points="63,15 19,-15 2,-5" />
<polygon fill="#49453d" fill-opacity="0.501961" points="137,106 111,95 130,110" />
<polygon fill="#1b202b" fill-opacity="0.501961" points="131,103 135,92 112,94" />
<polygon fill="#74694b" fill-opacity="0.501961" points="78,58 94,54 87,53" />
<polygon fill="#131b2e" fill-opacity="0.501961" points="171,50 155,1 124,12" />
<polygon fill="#12192d" fill-opacity="0.501961" points="106,69 87,54 93,98" />
<polygon fill="#596671" fill-opacity="0.501961" points="86,10 89,9 92,13" />
<polygon fill="#bccbd4" fill-opacity="0.501961" points="47,-16 92,11 177,-4" />
<polygon fill="#535c65" fill-opacity="0.501961" points="83,20 86,20 88,14" />
<polygon fill="#d0dcde" fill-opacity="0.501961" points="89,22 81,26 80,17" />
<polygon fill="#7d868c" fill-opacity="0.501961" points="213,81 242,108 224,99" />
<polygon fill="#12192e" fill-opacity="0.501961" points="135,27 165,64 166,30" />
</g>
</svg>