<svg xmlns="http://www.w3.org/2000/svg" width="1000" height="450" viewBox="0 0 1000 450" version="1.1">
	<rect x="0" y="0" width="100%" height="100%" fill="#f7f7f9" />
	<path d="M 0 33.500 C 0 51.925, 0.179 67, 0.398 67 C 0.833 67, 14.981 40.650, 27.915 15.750 L 36.096 -0 18.048 -0 L 0 0 0 33.500 M 171.139 1.018 C 173.536 2.418, 181.882 2.518, 183.236 1.164 C 184.121 0.279, 182.615 0.007, 176.950 0.030 C 171.718 0.052, 169.988 0.346, 171.139 1.018 M 196.528 0.954 C 195.222 3.067, 198.656 12.508, 201.703 15.182 C 203.797 17.019, 210 20.285, 210 19.550 C 210 19.275, 211.110 19.471, 212.466 19.987 C 214.310 20.688, 215.322 20.535, 216.475 19.382 C 218.379 17.478, 217.601 16.001, 214.691 15.996 C 208.730 15.986, 202.300 8.466, 203.516 2.927 C 204.132 0.124, 204.010 0, 200.638 0 C 198.702 0, 196.853 0.429, 196.528 0.954 M 852.500 7.104 C 884.075 25.775, 922.320 47.701, 939.500 56.980 C 967.746 72.236, 973.849 75.775, 981 81.041 C 992.485 89.498, 992.029 88.476, 991.012 103.507 C 990.528 110.653, 989.441 123.475, 988.596 132 C 987.752 140.525, 986.841 151.100, 986.574 155.500 C 986.306 159.900, 985.633 168, 985.079 173.500 C 984.525 179, 983.801 189.778, 983.471 197.450 C 983.141 205.123, 982.687 211.697, 982.463 212.059 C 982.239 212.422, 982.013 220.094, 981.961 229.109 C 981.909 238.124, 981.415 247.525, 980.864 250 C 978.976 258.480, 978.516 270.353, 979.554 283.852 C 980.149 291.582, 981.174 293.350, 982.249 288.500 C 983.459 283.046, 980.685 316.110, 978.935 328 C 977.173 339.978, 976.938 341.698, 974.911 357.500 C 973.853 365.750, 972.333 376.550, 971.534 381.500 C 970.735 386.450, 969.596 394.550, 969.004 399.500 C 968.412 404.450, 967.530 409.625, 967.045 411 C 965.707 414.792, 965.022 418.393, 964.436 424.735 C 964.142 427.904, 963.474 430.926, 962.951 431.449 C 962.428 431.972, 961.933 433.998, 961.850 435.950 C 961.726 438.885, 961.629 439.033, 961.289 436.805 C 961.007 434.959, 960.424 434.284, 959.439 434.662 C 958.647 434.966, 958 435.809, 958 436.536 C 958 437.262, 957.432 438.452, 956.738 439.179 C 956.044 439.905, 954.918 441.763, 954.234 443.306 C 953.551 444.850, 952.543 445.836, 951.996 445.497 C 951.448 445.159, 951 445.322, 951 445.859 C 951 446.397, 950.724 447.556, 950.386 448.436 C 949.832 449.880, 952.235 450.009, 975.136 449.767 L 1000.500 449.500 1000.817 403 C 1000.991 377.425, 1000.823 276.288, 1000.444 178.250 L 999.753 -0 920.127 0.004 L 840.500 0.008 852.500 7.104 M 122.500 5 C 122.160 5.550, 122.359 6, 122.941 6 C 123.523 6, 124 5.550, 124 5 C 124 4.450, 123.802 4, 123.559 4 C 123.316 4, 122.840 4.450, 122.500 5 M 596.500 8.146 C 582.261 12.900, 498.742 43.950, 474.691 53.431 C 468.536 55.857, 453.825 61.520, 442 66.014 C 430.175 70.509, 413.177 77.069, 404.227 80.593 C 386.434 87.598, 384.334 88.113, 385.965 85.066 C 387.263 82.640, 387.267 82, 385.984 82 C 385.425 82, 384.217 83.575, 383.299 85.500 C 381.005 90.310, 380 89.886, 380 84.107 C 380 79.748, 379.029 78, 376.609 78 C 376.484 78, 374.889 81.532, 373.064 85.850 L 369.745 93.700 342.123 104.297 C 290.245 124.200, 187.811 161.893, 137.054 179.757 C 133.634 180.961, 132.512 181.037, 132.196 180.088 C 131.914 179.241, 131.078 179.517, 129.536 180.967 C 127.441 182.935, 123.112 184.773, 96.219 195.117 C 86.945 198.685, 79.389 202.479, 70.347 208.108 L 67.193 210.071 59.347 206.124 C 49.750 201.295, 6.365 181.526, 3.250 180.562 L 1 179.865 1 314.933 L 1 450 465.250 449.977 L 929.500 449.955 923.967 444.727 C 920.924 441.852, 917.182 437.804, 915.652 435.731 C 914.122 433.658, 912.508 432.186, 912.066 432.459 C 911.293 432.937, 901 421.830, 901 420.519 C 901 420.168, 899.425 417.817, 897.500 415.296 C 895.575 412.775, 894 410.102, 894 409.356 C 894 408.610, 893.325 408, 892.500 408 C 891.675 408, 891 407.346, 891 406.547 C 891 404.025, 888.751 400.036, 887.696 400.688 C 887.079 401.069, 886.902 400.482, 887.243 399.181 C 887.694 397.455, 886.891 396.489, 883.033 394.115 C 880.411 392.502, 877.275 389.791, 876.065 388.091 C 874.854 386.391, 873.193 385, 872.373 385 C 871.553 385, 871.150 384.567, 871.477 384.037 C 872.260 382.771, 868.251 376.503, 862.893 370.615 C 860.533 368.023, 857.205 363.435, 855.497 360.422 C 853.789 357.408, 852.091 355.243, 851.724 355.610 C 851.356 355.977, 850.575 355.011, 849.986 353.464 C 849.398 351.916, 847.406 348.978, 845.561 346.935 C 843.715 344.893, 841.893 342.237, 841.511 341.034 C 841.129 339.832, 839.282 337.195, 837.406 335.174 C 831.607 328.927, 831.371 328.624, 828.683 323.969 C 827.244 321.477, 824.702 318.130, 823.033 316.532 C 821.365 314.934, 820 313.263, 820 312.821 C 820 312.051, 818.918 310.679, 812.760 303.634 C 811.252 301.910, 809.736 299.638, 809.390 298.585 C 809.044 297.531, 807.752 295.661, 806.520 294.429 C 805.288 293.197, 803.280 290.572, 802.058 288.595 C 800.837 286.618, 799.438 285, 798.950 285 C 798.462 285, 798.322 284.325, 798.638 283.500 C 799.008 282.537, 798.618 282, 797.548 282 C 796.632 282, 796.112 281.627, 796.394 281.171 C 796.676 280.716, 795.580 278.891, 793.958 277.115 C 792.337 275.340, 790.542 273.013, 789.970 271.944 C 789.398 270.875, 788.285 270, 787.496 270 C 786.636 270, 786.292 269.403, 786.635 268.508 C 786.961 267.658, 786.521 266.753, 785.609 266.404 C 784.731 266.066, 784.236 265.428, 784.510 264.984 C 784.987 264.212, 783.438 262.086, 778 256.048 C 774.749 252.439, 772 247.339, 772 244.919 C 772 243.864, 771.411 243, 770.691 243 C 769.971 243, 768.509 242.292, 767.441 241.426 C 766.374 240.560, 766.151 240.191, 766.947 240.606 C 767.816 241.060, 767.517 240.131, 766.197 238.276 C 764.989 236.579, 764 234.731, 764 234.168 C 764 233.606, 762.814 232.212, 761.365 231.073 C 759.916 229.933, 758.996 229, 759.320 229 C 759.644 229, 758.917 227.954, 757.705 226.675 C 753.582 222.327, 751.862 219.819, 751.721 217.951 C 751.644 216.925, 751.376 216.290, 751.126 216.541 C 750.374 217.292, 746.123 209.610, 746.739 208.613 C 747.053 208.106, 746.840 207.981, 746.268 208.334 C 744.855 209.208, 742.644 206.386, 743.568 204.889 C 743.989 204.209, 743.887 203.952, 743.333 204.294 C 742.284 204.943, 739 201.649, 739 199.948 C 739 199.382, 738.157 197.700, 737.127 196.210 C 735.371 193.667, 732.557 189.216, 723.904 175.288 C 721.925 172.105, 718.663 166.949, 716.654 163.831 C 714.644 160.712, 713 157.848, 713 157.465 C 713 157.081, 711.425 154.622, 709.500 152 C 707.575 149.378, 706 146.885, 706 146.460 C 706 146.036, 704.875 144.214, 703.500 142.411 C 702.125 140.608, 701 138.891, 701 138.596 C 701 137.946, 695.201 128.170, 684.038 110 C 679.476 102.575, 674.964 95.150, 674.012 93.500 C 669.523 85.727, 665.611 79.277, 664.002 77 C 661.494 73.448, 645.911 47.560, 642.333 41 C 636.277 29.897, 627.697 16.764, 624.246 13.313 C 616.928 5.995, 607.950 4.323, 596.500 8.146 M 235.350 13.530 C 234.686 15.261, 236.493 17.169, 241.005 19.503 C 243.331 20.705, 244.532 20.905, 244.789 20.132 C 244.997 19.509, 245.565 19, 246.052 19 C 246.539 19, 246.691 19.640, 246.391 20.423 C 245.781 22.013, 249.463 24.450, 251.021 23.487 C 253.436 21.994, 251.424 19.908, 243.947 16.154 C 237.631 12.982, 235.777 12.416, 235.350 13.530 M 269.427 24.638 C 254.615 40.333, 254.642 40.295, 256.934 41.727 C 258.366 42.621, 259.565 42.274, 263.069 39.954 C 265.924 38.064, 267.658 37.447, 268.101 38.163 C 268.472 38.764, 269.277 38.947, 269.888 38.569 C 270.500 38.191, 271 38.355, 271 38.933 C 271 39.511, 272.688 40.781, 274.750 41.755 C 277.092 42.861, 278.554 44.272, 278.644 45.513 C 278.723 46.606, 278.835 48.707, 278.894 50.183 C 278.993 52.691, 282.267 55.067, 283.679 53.655 C 284.413 52.920, 290 19.946, 290 16.346 C 290 16.022, 282.334 12, 281.717 12 C 281.517 12, 275.987 17.687, 269.427 24.638 M 275.750 26.447 C 272.587 29.958, 270 33.309, 270 33.894 C 270 34.480, 271.834 35.895, 274.076 37.039 C 279.228 39.667, 280.524 38.729, 281.408 31.733 C 281.772 28.855, 282.329 25.038, 282.646 23.250 C 282.963 21.462, 282.835 20.015, 282.361 20.033 C 281.888 20.051, 278.913 22.937, 275.750 26.447 M 306.383 28.087 C 301.948 29.369, 295.595 36.693, 293.534 42.898 C 291.578 48.786, 292.135 56.731, 294.570 57.665 C 295.357 57.967, 296.019 58.728, 296.042 59.357 C 296.114 61.296, 302.816 64.908, 306.759 65.134 C 311.446 65.402, 317.424 62.617, 320.036 58.949 C 325.697 50.999, 327.582 40.961, 324.524 35.047 C 321.703 29.591, 312.882 26.207, 306.383 28.087 M 182.035 31.934 C 180.768 34.301, 180.709 35.298, 181.879 34.575 C 182.762 34.029, 184.138 30, 183.442 30 C 183.237 30, 182.605 30.870, 182.035 31.934 M 305.443 36.492 C 302.253 39.874, 297.967 49.298, 298.032 52.788 C 298.094 56.162, 302.760 60, 306.799 60 C 310.086 60, 314.117 55.931, 317.121 49.581 C 320.537 42.361, 320.721 39.186, 317.927 35.635 C 314.774 31.626, 309.703 31.974, 305.443 36.492 M 191.035 35.934 C 189.768 38.301, 189.709 39.298, 190.879 38.575 C 191.762 38.029, 193.138 34, 192.442 34 C 192.237 34, 191.605 34.870, 191.035 35.934 M 394.571 36.571 C 393.707 37.436, 393.014 38.673, 393.032 39.321 C 393.049 39.970, 393.724 39.627, 394.532 38.559 C 395.339 37.492, 396.562 36.261, 397.250 35.824 C 398.148 35.254, 398.168 35.026, 397.321 35.015 C 396.673 35.007, 395.436 35.707, 394.571 36.571 M 864 40.135 C 864 40.760, 865.113 42.302, 866.474 43.563 C 868.913 45.824, 868.926 45.924, 867.412 50.678 C 866.567 53.330, 865.155 57.901, 864.274 60.835 C 862.615 66.364, 862.536 66.408, 857.125 64.887 C 856.369 64.674, 855.555 65.028, 855.317 65.674 C 854.921 66.748, 869.706 75, 872.026 75 C 874.005 75, 872.919 72.284, 870.500 71.182 C 867.394 69.767, 867.394 68.757, 870.507 58.645 C 873.732 48.170, 874.173 47.487, 876.807 48.897 C 879.592 50.387, 881 50.284, 881 48.590 C 881 47.254, 867.269 39, 865.047 39 C 864.471 39, 864 39.511, 864 40.135 M 336.983 42.032 C 336.404 43.114, 336.170 44.056, 336.465 44.125 C 336.759 44.194, 337.337 44.313, 337.750 44.390 C 338.163 44.467, 339.063 44.888, 339.750 45.324 C 340.438 45.761, 341.355 45.899, 341.788 45.631 C 342.221 45.363, 342.672 46.309, 342.790 47.734 C 342.953 49.699, 334.383 69.637, 332.413 71.875 C 332.232 72.082, 330.290 71.533, 328.099 70.656 C 324.258 69.119, 324.092 69.136, 323.466 71.106 C 323.109 72.231, 322.971 73.243, 323.159 73.355 C 325.203 74.578, 331.376 77, 332.451 77 C 333.211 77, 333.994 77.483, 334.191 78.073 C 334.388 78.664, 336.563 79.340, 339.024 79.577 C 341.486 79.814, 343.651 80.459, 343.835 81.010 C 344.227 82.181, 346 81.317, 346 79.954 C 346 79.444, 344.425 78.369, 342.500 77.564 C 340.575 76.760, 339 75.801, 339 75.432 C 339 75.064, 341.529 69.472, 344.620 63.006 C 349.409 52.990, 350.584 51.250, 352.561 51.250 C 353.838 51.250, 355.119 51.869, 355.410 52.625 C 356.137 54.521, 358.651 54.353, 359.417 52.357 C 360.189 50.345, 361.076 51.021, 351.139 46.049 C 338.783 39.867, 338.226 39.709, 336.983 42.032 M 402.946 43.750 L 399.500 47.500 403.334 44 L 407.169 40.500 406.513 45.500 C 406.036 49.141, 406.145 50.092, 406.913 49 C 408.148 47.247, 408.375 40, 407.196 40 C 406.754 40, 404.842 41.688, 402.946 43.750 M 199.667 41.667 C 199.300 42.033, 199 42.798, 199 43.367 C 199 43.993, 199.466 43.934, 200.183 43.217 C 200.834 42.566, 201.134 41.801, 200.850 41.517 C 200.566 41.233, 200.033 41.300, 199.667 41.667 M 397.344 43.508 C 395.993 46.421, 397.438 46.918, 398.965 44.066 C 400.194 41.770, 400.266 40.997, 399.250 41.008 C 398.837 41.012, 397.980 42.137, 397.344 43.508 M 415.241 44.574 C 415.614 44.948, 415.230 46.588, 414.386 48.220 C 413.543 49.851, 413.070 51.403, 413.335 51.668 C 413.600 51.934, 414.113 51.219, 414.474 50.081 C 414.835 48.943, 415.765 47.378, 416.540 46.603 C 417.752 45.391, 417.712 45.103, 416.255 44.544 C 415.323 44.187, 414.867 44.200, 415.241 44.574 M 421.557 52.149 C 420.274 55.356, 420.169 56.547, 421.095 57.399 C 421.976 58.208, 422.117 58.186, 421.628 57.315 C 421.261 56.662, 421.870 54.511, 422.981 52.534 C 425.252 48.491, 425.374 48, 424.109 48 C 423.618 48, 422.470 49.867, 421.557 52.149 M 887.059 54.345 C 886.568 55.636, 884.737 61.501, 882.989 67.380 C 880.432 75.983, 880.051 78.357, 881.039 79.547 C 881.970 80.669, 882.594 80.752, 883.633 79.890 C 884.385 79.266, 884.999 78.248, 884.997 77.628 C 884.995 77.007, 885.971 73.204, 887.165 69.175 C 889.792 60.310, 890.349 60.947, 892.599 75.395 C 894.163 85.434, 894.440 86.176, 897.140 87.572 C 899.862 88.980, 900.069 88.937, 901.014 86.780 C 901.563 85.526, 903.318 79.459, 904.915 73.297 C 907.428 63.599, 907.623 61.932, 906.367 60.889 C 904.314 59.186, 903.501 60.429, 901.143 68.875 C 897.939 80.348, 897.700 80.203, 895.541 65.494 C 894.421 57.862, 893.422 54.118, 892.273 53.250 C 889.784 51.371, 888.051 51.735, 887.059 54.345 M 227.624 56.539 C 226.659 59.053, 226.943 59.702, 228.122 57.675 C 228.706 56.671, 228.973 55.639, 228.715 55.382 C 228.458 55.124, 227.966 55.645, 227.624 56.539 M 234.624 56.539 C 233.659 59.053, 233.943 59.702, 235.122 57.675 C 235.706 56.671, 235.973 55.639, 235.715 55.382 C 235.458 55.124, 234.966 55.645, 234.624 56.539 M 248.500 64 C 247.505 65.100, 246.985 66, 247.345 66 C 247.705 66, 248.900 65.100, 250 64 C 251.100 62.900, 251.620 62, 251.155 62 C 250.690 62, 249.495 62.900, 248.500 64 M 913 66.331 C 913 67.063, 914.178 68.293, 915.618 69.063 C 919.413 71.094, 919.834 73.356, 917.879 81.224 C 914.587 94.470, 914.522 95.884, 917.162 96.889 C 920.045 97.987, 920.190 97.688, 923.090 84.677 C 925.480 73.957, 924.711 74.660, 931.884 76.644 C 937.050 78.073, 933.155 74.687, 924.150 69.921 C 914.186 64.647, 913 64.266, 913 66.331 M 251.710 69 C 251.423 70.100, 251.595 71, 252.094 71 C 252.592 71, 253 70.100, 253 69 C 253 67.900, 252.827 67, 252.617 67 C 252.406 67, 251.998 67.900, 251.710 69 M 941.478 80.250 C 940.596 82.653, 937 101.239, 937.007 103.360 C 937.012 105.117, 938.517 106.082, 945.403 108.750 C 954.366 112.222, 956 112.571, 956 111.010 C 956 110.465, 953.075 108.694, 949.500 107.073 C 945.925 105.452, 943 103.663, 943 103.098 C 943 102.533, 943.900 97.442, 945 91.785 C 946.874 82.153, 946.893 81.421, 945.309 80.250 C 944.379 79.563, 943.240 79, 942.777 79 C 942.315 79, 941.731 79.563, 941.478 80.250 M 374.123 88.629 C 373.464 90.075, 373.189 91.522, 373.511 91.844 C 374.552 92.885, 377.307 90.461, 377.652 88.199 C 378.126 85.094, 375.593 85.402, 374.123 88.629 M 532.320 98.347 C 531.197 99.639, 525.153 102.809, 518.889 105.393 C 512.625 107.976, 506.684 110.541, 505.687 111.093 C 504.691 111.644, 503.003 111.818, 501.937 111.480 C 499.478 110.700, 499.506 111.545, 502.152 117.911 C 504.778 124.230, 507.336 124.570, 507.435 118.614 C 507.491 115.257, 508.001 114.411, 511.189 112.389 L 514.878 110.048 516.330 112.774 C 519.708 119.113, 523.887 126.801, 526.238 131 C 527.623 133.475, 529.723 137.300, 530.905 139.500 L 533.053 143.500 530.411 145.801 C 528.958 147.067, 528.028 148.361, 528.344 148.678 C 529.058 149.391, 550 141.054, 550 140.057 C 550 138.563, 548.639 138.055, 547.397 139.085 C 546.689 139.673, 545.097 140.006, 543.859 139.827 C 542.113 139.573, 539.770 136.189, 533.396 124.709 C 528.878 116.574, 524.947 109.303, 524.658 108.552 C 524.338 107.718, 525.227 106.735, 526.944 106.023 C 531.762 104.028, 533.413 104.157, 536.190 106.749 C 537.756 108.210, 539.524 109.013, 540.421 108.669 C 541.694 108.180, 541.337 107.030, 538.364 102.039 C 536.385 98.717, 534.675 96, 534.563 96 C 534.452 96, 533.442 97.056, 532.320 98.347 M 482.738 120.692 C 481.769 120.945, 481.229 121.562, 481.540 122.064 C 481.850 122.566, 481.477 122.737, 480.712 122.443 C 479.401 121.940, 472.210 124.210, 463.733 127.803 C 459.391 129.644, 459.303 131.639, 463.584 131.203 C 466.653 130.891, 466.830 131.156, 480.348 156.250 C 481.459 158.313, 482.638 160, 482.967 160 C 484.376 160, 483.173 165.400, 481.490 166.631 C 480.476 167.372, 479.926 168.260, 480.269 168.602 C 480.989 169.323, 500 161.996, 500 160.998 C 500 159.547, 498.684 159.170, 496.508 159.997 C 493.689 161.069, 491.207 158.673, 488.010 151.797 C 484.300 143.815, 486.350 143.523, 496.483 150.588 C 505.587 156.936, 511.726 157.893, 518.859 154.075 C 521.549 152.636, 521.023 151.732, 517.212 151.242 C 515.720 151.051, 512.822 149.793, 510.771 148.447 C 508.721 147.101, 506.777 146, 506.452 146 C 505.966 146, 497.688 140.665, 496.029 139.284 C 495.770 139.068, 496.079 138.569, 496.716 138.175 C 498.212 137.251, 500 132.533, 500 129.512 C 500 125.980, 495.259 120.783, 492.760 121.576 C 491.424 122, 490.979 121.843, 491.434 121.107 C 492.125 119.988, 486.471 119.718, 482.738 120.692 M 476.893 125.945 C 475.474 126.823, 475.767 127.936, 479.393 135.433 C 483.501 143.929, 484.988 145.184, 488 142.698 C 492.504 138.981, 492.770 133.753, 488.715 128.668 C 486.283 125.618, 479.826 124.131, 476.893 125.945 M 430.724 140.356 C 423.601 143.367, 422.727 144.083, 419.545 149.513 C 415.060 157.167, 416.329 168.484, 422.495 175.812 C 429.707 184.382, 443.426 186.984, 453.649 181.720 C 462.601 177.110, 467.698 168.586, 466.426 160.349 C 465.709 155.706, 462.564 148.280, 460.213 145.683 C 453.720 138.508, 440.672 136.151, 430.724 140.356 M 432.500 142.716 C 421.969 145.264, 424.255 162.613, 436.693 174.530 C 443.579 181.129, 451.970 181.560, 456.941 175.571 C 459.982 171.907, 457.547 161.608, 451.539 152.721 C 447.646 146.962, 445.196 144.916, 440.101 143.167 C 436.568 141.954, 435.830 141.910, 432.500 142.716 M 388.500 158.394 C 381.703 160.536, 367.978 166.227, 367.415 167.137 C 367.122 167.612, 368.253 168, 369.928 168 C 372.369 168, 373.437 168.746, 375.299 171.750 C 379.132 177.933, 390 200.464, 390 202.227 C 390 203.128, 389.075 204.159, 387.945 204.517 C 385.838 205.186, 385.813 207.712, 387.918 207.236 C 390.459 206.661, 407.557 199.713, 408.433 198.900 C 410.112 197.341, 408.069 196.647, 405.392 197.867 C 401.991 199.417, 400.715 198.359, 396.918 190.838 C 393.447 183.962, 393.452 184, 396.020 184 C 399.068 184, 405.820 179.343, 408.033 175.715 C 409.111 173.947, 409.994 171.245, 409.996 169.710 C 410.002 165.676, 406.583 159.587, 403.533 158.197 C 400.206 156.681, 393.665 156.767, 388.500 158.394 M 385.044 162.951 C 383.829 163.720, 384.283 165.327, 387.797 172.686 C 390.111 177.534, 392.596 181.630, 393.319 181.788 C 394.042 181.946, 395.891 181.087, 397.429 179.877 C 399.906 177.928, 400.168 177.187, 399.736 173.346 C 399.447 170.787, 398.152 167.577, 396.573 165.506 C 394.358 162.603, 393.262 162.003, 390.199 162.015 C 388.165 162.024, 385.845 162.445, 385.044 162.951 M 352 171.936 C 337.204 174.922, 331.390 189.597, 342.176 196.735 C 345.110 198.676, 347.783 199.370, 354.283 199.875 C 365.835 200.774, 370.214 204.025, 368.590 210.499 C 367.995 212.867, 363.123 216, 360.034 216 C 357.447 216, 350.306 212.241, 349.652 210.535 C 349.328 209.691, 348.585 209, 348 209 C 345.709 209, 345.983 212.018, 348.638 216.029 L 351.422 220.236 356.800 219.681 C 368.280 218.496, 376 211.904, 376 203.286 C 376 194.445, 371.799 191.434, 358.012 190.393 C 350.076 189.794, 348.230 189.320, 346.296 187.387 C 343.911 185.002, 343.301 180.654, 344.979 178 C 346.340 175.847, 354.255 176.016, 356.724 178.250 C 358.901 180.220, 363 180.609, 363 178.844 C 363 177.061, 358.048 170.986, 356.699 171.115 C 356.040 171.178, 353.925 171.548, 352 171.936 M 318 186.040 C 316.625 186.495, 313.687 187.335, 311.472 187.907 C 305.706 189.396, 300.904 194.675, 300.280 200.210 C 299.858 203.953, 300.196 205.079, 302.596 207.932 C 306.134 212.136, 310.542 214, 316.948 214 C 322.791 214, 329.640 216.458, 331.029 219.055 C 332.606 222.001, 332.143 226.561, 330.078 228.430 C 327.261 230.978, 320.007 231.764, 318.823 229.649 C 318.316 228.742, 317.303 228, 316.572 228 C 315.842 228, 314.627 227.071, 313.872 225.935 C 312.953 224.552, 311.922 224.092, 310.750 224.542 C 308.194 225.523, 308.586 227.039, 312.497 231.297 C 315.667 234.749, 316.325 235.038, 319.742 234.483 C 326.542 233.378, 331.447 231.070, 335.099 227.257 C 339.445 222.722, 340.444 219.215, 338.881 213.997 C 336.835 207.168, 334.845 206.111, 323.145 205.636 C 311.853 205.178, 309.505 204.048, 306.930 197.830 C 305.834 195.186, 305.939 194.616, 307.877 192.679 C 310.933 189.622, 317.944 189.660, 321.234 192.750 C 323.771 195.134, 325.521 195.585, 326.443 194.093 C 327.021 193.158, 322.095 184.916, 321.072 185.106 C 320.758 185.165, 319.375 185.585, 318 186.040 M 267 204.982 C 265.734 205.786, 265.500 209.726, 265.500 230.250 L 265.500 254.565 269.539 253.116 L 273.577 251.668 271.800 246.403 C 269.120 238.463, 270.040 235.875, 276.291 233.775 C 281.999 231.856, 282.337 231.965, 289 237.843 C 292.170 240.640, 292.376 241.132, 291.181 243.063 C 290.455 244.235, 290.118 245.451, 290.431 245.764 C 290.744 246.077, 291 245.782, 291 245.108 C 291 244.434, 291.445 244.157, 291.989 244.493 C 292.533 244.829, 294.445 244.459, 296.239 243.669 C 298.033 242.880, 300.972 241.673, 302.771 240.987 C 304.571 240.301, 306.328 239.279, 306.676 238.715 C 307.024 238.152, 306.833 237.985, 306.251 238.345 C 305.019 239.107, 298.501 233.293, 281.482 216.250 C 274.753 209.512, 269.080 204.007, 268.874 204.015 C 268.668 204.024, 267.825 204.459, 267 204.982 M 232.199 219.986 C 228.047 220.970, 226.933 222, 230.021 222 C 233.877 222, 238.756 226.073, 240.561 230.798 C 242.161 234.988, 242.135 237.394, 240.445 241.449 C 239.707 243.221, 239.943 243.184, 243.067 241.037 C 248.815 237.087, 249.953 235.069, 249.978 228.789 C 249.996 224.148, 249.581 222.688, 247.765 220.995 C 246.535 219.850, 245.380 219.360, 245.198 219.906 C 244.983 220.551, 243.988 220.566, 242.368 219.950 C 239.510 218.863, 236.902 218.873, 232.199 219.986 M 269.219 221.022 C 268.317 222.464, 268.248 223.595, 268.977 224.957 C 269.540 226.008, 270 228.526, 270 230.551 C 270 233.910, 270.198 234.172, 272.250 233.536 C 273.488 233.152, 275.482 232.603, 276.683 232.316 C 280.574 231.383, 280.180 229.110, 275.230 223.948 C 270.683 219.206, 270.430 219.083, 269.219 221.022 M 754.211 220.399 C 754.920 221.169, 755.658 221.649, 755.850 221.466 C 756.443 220.902, 754.940 219, 753.902 219 C 753.362 219, 753.501 219.630, 754.211 220.399 M 219 223.979 C 217.625 224.422, 215.022 225.429, 213.216 226.217 L 209.932 227.648 212.292 228.723 C 213.761 229.393, 215.339 231.627, 216.474 234.649 C 217.477 237.317, 219.140 240.708, 220.170 242.184 C 221.200 243.660, 222.659 246.617, 223.414 248.755 C 224.168 250.893, 226.045 255.085, 227.586 258.071 C 229.126 261.057, 230.268 264.304, 230.124 265.286 C 229.906 266.771, 230.339 266.957, 232.681 266.390 C 234.231 266.014, 236.527 265.329, 237.782 264.866 C 239.964 264.062, 239.997 263.895, 238.532 261.062 C 237.689 259.433, 237 256.977, 237 255.606 C 237 254.208, 236.079 252.468, 234.902 251.644 C 233.619 250.745, 232.607 248.683, 232.297 246.337 C 231.824 242.754, 229.273 236.400, 224.894 227.898 C 223.873 225.916, 223.329 224.004, 223.686 223.648 C 224.537 222.796, 222.139 222.966, 219 223.979 M 829.454 226.074 C 829.089 226.665, 829.804 228.227, 831.042 229.545 C 832.987 231.615, 833.111 232.183, 831.952 233.721 C 830.678 235.409, 830.705 235.412, 832.488 233.781 C 834.252 232.166, 834.264 231.950, 832.683 230.202 C 830.556 227.852, 830.478 225.586, 832.552 226.382 C 833.442 226.723, 833.843 226.555, 833.493 225.989 C 832.682 224.677, 830.286 224.728, 829.454 226.074 M 837.547 232.602 C 836.901 236.042, 837.367 237.967, 838.556 236.777 C 838.863 236.471, 839.243 235.003, 839.401 233.515 C 839.560 232.027, 840.322 230.409, 841.095 229.920 C 842.171 229.239, 841.999 229.027, 840.361 229.015 C 838.693 229.003, 838.074 229.792, 837.547 232.602 M 846.716 235.904 C 845.772 237.502, 845 239.103, 845 239.463 C 845 240.877, 847.185 238.662, 848.265 236.153 L 849.407 233.500 849.775 237 C 850.261 241.625, 852 243.408, 852 239.282 C 852 232.600, 849.581 231.054, 846.716 235.904 M 857.986 237.750 C 857.979 238.713, 857.723 240.625, 857.418 242 C 857.017 243.803, 857.123 244.082, 857.796 243 C 859.343 240.515, 860.132 236, 859.019 236 C 858.459 236, 857.994 236.787, 857.986 237.750 M 825.671 255.723 C 825.355 256.235, 825.323 257.520, 825.600 258.580 C 826.022 260.190, 826.833 260.448, 830.552 260.152 C 832.998 259.958, 835 259.977, 835 260.196 C 835 262.182, 830.685 279.700, 830.033 280.358 C 829.561 280.835, 827.547 280.676, 825.500 280 C 822.948 279.158, 821.496 279.104, 820.775 279.825 C 819.119 281.481, 820.506 283.504, 824.141 284.735 C 825.989 285.360, 830.650 287.024, 834.500 288.432 C 842.906 291.505, 844 291.578, 844 289.065 C 844 287.761, 842.858 286.717, 840.500 285.864 C 838.575 285.168, 837 284.150, 837 283.602 C 837 283.054, 838.166 276.811, 839.592 269.728 C 841.018 262.646, 841.888 256.554, 841.525 256.192 C 840.458 255.125, 826.299 254.707, 825.671 255.723 M 985.158 261 C 985.158 262.375, 985.385 262.938, 985.662 262.250 C 985.940 261.563, 985.940 260.438, 985.662 259.750 C 985.385 259.063, 985.158 259.625, 985.158 261 M 858.920 269.275 C 851.758 274.101, 849.960 287.326, 855.481 294.564 C 860.527 301.180, 870.559 303.227, 874.962 298.540 C 877.789 295.531, 878.073 289.287, 875.558 285.449 C 873.705 282.620, 866.882 279.057, 863.250 279.022 C 861.926 279.009, 861 278.382, 861 277.500 C 861 275.670, 864.528 271.991, 866.250 272.024 C 867.879 272.055, 874.014 273.569, 876.250 274.492 C 877.640 275.065, 878 274.705, 878 272.739 C 878 270.576, 877.266 270.058, 872.184 268.632 C 864.544 266.488, 862.940 266.566, 858.920 269.275 M 893.637 280.250 C 892.862 281.488, 889.477 287.314, 886.114 293.197 C 880.417 303.164, 878.570 308.002, 881.044 306.473 C 881.618 306.118, 882.699 306.335, 883.446 306.955 C 884.508 307.836, 885.266 307.435, 886.914 305.121 L 889.023 302.159 894.902 304.696 C 900.370 307.056, 900.825 307.507, 901.407 311.146 C 901.864 314.004, 902.703 315.363, 904.521 316.191 C 905.889 316.815, 907.280 317.054, 907.611 316.722 C 908.172 316.162, 905.535 289.946, 904.290 283.708 C 903.892 281.714, 902.735 280.498, 900.244 279.458 C 895.680 277.550, 895.299 277.596, 893.637 280.250 M 983.195 280.500 C 983.215 282.150, 983.439 282.704, 983.693 281.731 C 983.947 280.758, 983.930 279.408, 983.656 278.731 C 983.382 278.054, 983.175 278.850, 983.195 280.500 M 859.170 284.750 C 858.675 285.712, 858.395 286.950, 858.548 287.500 C 858.700 288.050, 859.079 289.660, 859.389 291.079 C 860.436 295.871, 868.274 297.688, 870.148 293.574 C 871.890 289.751, 870.421 286.074, 866.497 284.434 C 861.988 282.550, 860.263 282.625, 859.170 284.750 M 896.887 287.056 C 895.129 289.745, 891 297.668, 891 298.352 C 891 298.768, 898.547 302, 899.520 302 C 900.220 302, 899.999 293.145, 899.185 288.556 L 898.484 284.612 896.887 287.056 M 502.667 294.667 C 501.572 295.761, 501.907 296.667, 503.405 296.667 C 504.177 296.667, 504.579 296.067, 504.298 295.333 C 503.712 293.807, 503.580 293.753, 502.667 294.667 M 980.079 295.583 C 980.127 296.748, 980.364 296.985, 980.683 296.188 C 980.972 295.466, 980.936 294.603, 980.604 294.271 C 980.272 293.939, 980.036 294.529, 980.079 295.583 M 460.564 298.707 C 460.022 300.132, 460.136 300.247, 461.124 299.267 C 461.808 298.588, 462.115 297.781, 461.807 297.474 C 461.499 297.166, 460.940 297.721, 460.564 298.707 M 547 298.594 C 547 300.139, 549.557 300.526, 550.430 299.114 C 550.731 298.626, 550.083 297.993, 548.989 297.707 C 547.700 297.370, 547 297.682, 547 298.594 M 450 299.893 C 450 300.384, 450.652 301.036, 451.449 301.342 C 452.418 301.714, 452.714 301.418, 452.342 300.449 C 451.735 298.867, 450 298.455, 450 299.893 M 541.500 301 C 541.840 301.550, 542.568 302, 543.118 302 C 543.668 302, 543.840 301.550, 543.500 301 C 543.160 300.450, 542.432 300, 541.882 300 C 541.332 300, 541.160 300.450, 541.500 301 M 416.168 322.469 C 416.786 323.826, 417.667 324.706, 418.126 324.422 C 419.032 323.862, 416.984 320, 415.781 320 C 415.375 320, 415.549 321.111, 416.168 322.469 M 416 336.755 C 416 337.305, 416.675 338.315, 417.500 339 C 418.337 339.694, 419 339.803, 419 339.245 C 419 338.695, 418.325 337.685, 417.500 337 C 416.663 336.306, 416 336.197, 416 336.755 M 391.079 369.583 C 391.127 370.748, 391.364 370.985, 391.683 370.188 C 391.972 369.466, 391.936 368.603, 391.604 368.271 C 391.272 367.939, 391.036 368.529, 391.079 369.583 " stroke="none" fill="#cde4f4" fill-rule="evenodd"/>
</svg>