<svg xmlns="http://www.w3.org/2000/svg" version="1.1" width="1024" height="444">
<rect x="0" y="0" width="1024" height="444" fill="#605b4e" />
<g transform="scale(4.000000) translate(0.5 0.5)">
<polygon fill="#000000" fill-opacity="0.501961" points="271,104 141,126 214,-16" />
<polygon fill="#fffbdc" fill-opacity="0.501961" points="66,126 167,97 162,-16" />
<polygon fill="#c8c8cb" fill-opacity="0.501961" points="77,-16 7,126 -16,4" />
<polygon fill="#000000" fill-opacity="0.501961" points="166,-16 179,126 271,7" />
<polygon fill="#000000" fill-opacity="0.501961" points="247,126 271,-3 157,-7" />
<polygon fill="#b19b78" fill-opacity="0.501961" points="118,-16 65,126 174,10" />
<polygon fill="#2e1b00" fill-opacity="0.501961" points="73,-14 96,77 48,66" />
<polygon fill="#fdfdf2" fill-opacity="0.501961" points="121,126 164,84 168,27" />
<polygon fill="#a8a29c" fill-opacity="0.501961" points="61,24 28,115 -16,113" />
<polygon fill="#000402" fill-opacity="0.501961" points="154,126 271,112 185,-16" />
<polygon fill="#614018" fill-opacity="0.501961" points="143,78 152,34 124,67" />
<polygon fill="#d8cfc2" fill-opacity="0.501961" points="131,53 99,126 103,27" />
<polygon fill="#000e1e" fill-opacity="0.501961" points="75,93 94,86 100,95" />
<polygon fill="#6e6c66" fill-opacity="0.501961" points="14,84 36,89 44,3" />
<polygon fill="#191e25" fill-opacity="0.501961" points="92,79 74,66 110,70" />
<polygon fill="#342608" fill-opacity="0.501961" points="63,15 71,68 108,3" />
<polygon fill="#7c6944" fill-opacity="0.501961" points="128,-16 152,21 108,58" />
<polygon fill="#cbd5e2" fill-opacity="0.501961" points="101,91 88,126 153,105" />
<polygon fill="#0c110c" fill-opacity="0.501961" points="25,125 38,93 77,122" />
<polygon fill="#e5cb93" fill-opacity="0.501961" points="166,39 137,-10 168,9" />
<polygon fill="#131511" fill-opacity="0.501961" points="264,12 153,100 267,116" />
<polygon fill="#000000" fill-opacity="0.501961" points="176,73 265,-14 170,-7" />
<polygon fill="#9a805d" fill-opacity="0.501961" points="151,74 113,103 153,6" />
<polygon fill="#cab483" fill-opacity="0.501961" points="116,-16 135,19 105,4" />
<polygon fill="#aba8a3" fill-opacity="0.501961" points="-16,123 33,108 6,26" />
<polygon fill="#10181a" fill-opacity="0.501961" points="112,30 117,16 131,20" />
<polygon fill="#644b29" fill-opacity="0.501961" points="36,100 61,23 71,91" />
<polygon fill="#877458" fill-opacity="0.501961" points="84,52 96,20 95,78" />
<polygon fill="#ded4bf" fill-opacity="0.501961" points="137,52 133,24 123,61" />
<polygon fill="#e3dfce" fill-opacity="0.501961" points="167,78 116,112 163,50" />
<polygon fill="#f4f6f6" fill-opacity="0.501961" points="99,103 122,73 103,120" />
<polygon fill="#82898b" fill-opacity="0.501961" points="76,108 68,94 111,92" />
<polygon fill="#998d6d" fill-opacity="0.501961" points="77,89 97,84 71,65" />
<polygon fill="#b09d7f" fill-opacity="0.501961" points="113,16 124,77 96,34" />
<polygon fill="#000000" fill-opacity="0.501961" points="192,-16 161,2 126,-14" />
<polygon fill="#b0a8a5" fill-opacity="0.501961" points="35,67 36,92 49,50" />
<polygon fill="#f2e1b9" fill-opacity="0.501961" points="150,51 165,28 164,61" />
<polygon fill="#7e9196" fill-opacity="0.501961" points="131,112 154,106 170,79" />
<polygon fill="#4c3816" fill-opacity="0.501961" points="94,-13 92,23 112,19" />
<polygon fill="#373f3b" fill-opacity="0.501961" points="169,84 134,126 169,126" />
<polygon fill="#6d5c3c" fill-opacity="0.501961" points="155,33 142,63 124,66" />
<polygon fill="#76736c" fill-opacity="0.501961" points="23,54 46,34 26,103" />
<polygon fill="#162026" fill-opacity="0.501961" points="110,68 103,75 98,72" />
<polygon fill="#2b2514" fill-opacity="0.501961" points="122,30 129,28 118,42" />
<polygon fill="#84693d" fill-opacity="0.501961" points="95,-16 74,3 94,19" />
<polygon fill="#a39c89" fill-opacity="0.501961" points="93,76 120,72 97,83" />
<polygon fill="#bb935b" fill-opacity="0.501961" points="154,40 159,17 140,-2" />
<polygon fill="#c2ac82" fill-opacity="0.501961" points="125,93 154,59 146,83" />
<polygon fill="#5c665b" fill-opacity="0.501961" points="166,53 163,84 172,71" />
<polygon fill="#ebf0ed" fill-opacity="0.501961" points="140,101 166,74 162,60" />
<polygon fill="#785d31" fill-opacity="0.501961" points="145,13 132,-16 138,30" />
<polygon fill="#e0ded6" fill-opacity="0.501961" points="103,57 112,63 105,71" />
<polygon fill="#b5ad99" fill-opacity="0.501961" points="107,29 102,38 128,26" />
<polygon fill="#000100" fill-opacity="0.501961" points="184,63 168,25 234,-8" />
<polygon fill="#634823" fill-opacity="0.501961" points="48,71 71,91 75,61" />
<polygon fill="#acb1bf" fill-opacity="0.501961" points="129,117 72,96 98,125" />
<polygon fill="#131610" fill-opacity="0.501961" points="257,-16 203,48 271,107" />
<polygon fill="#644e28" fill-opacity="0.501961" points="101,26 66,-12 89,41" />
<polygon fill="#aca088" fill-opacity="0.501961" points="143,35 127,7 135,42" />
<polygon fill="#87765c" fill-opacity="0.501961" points="91,63 106,16 88,44" />
<polygon fill="#192016" fill-opacity="0.501961" points="167,58 176,74 173,28" />
<polygon fill="#000705" fill-opacity="0.501961" points="34,99 32,111 41,110" />
<polygon fill="#6f725f" fill-opacity="0.501961" points="172,23 162,14 168,13" />
<polygon fill="#e9e1c0" fill-opacity="0.501961" points="148,0 160,13 169,10" />
<polygon fill="#7c7e79" fill-opacity="0.501961" points="13,56 12,26 3,62" />
<polygon fill="#12150f" fill-opacity="0.501961" points="82,37 67,24 72,47" />
<polygon fill="#323d41" fill-opacity="0.501961" points="91,78 96,96 88,97" />
<polygon fill="#c5bfb2" fill-opacity="0.501961" points="105,92 134,66 90,85" />
<polygon fill="#aca9a3" fill-opacity="0.501961" points="12,13 50,4 24,-6" />
<polygon fill="#b6b1a6" fill-opacity="0.501961" points="141,124 106,108 126,91" />
<polygon fill="#938b74" fill-opacity="0.501961" points="66,75 78,90 97,84" />
<polygon fill="#10140d" fill-opacity="0.501961" points="83,31 73,10 64,15" />
<polygon fill="#a5a3a2" fill-opacity="0.501961" points="33,14 -16,95 5,112" />
<polygon fill="#f4fdff" fill-opacity="0.501961" points="114,100 112,92 94,108" />
<polygon fill="#74787b" fill-opacity="0.501961" points="13,-5 -16,49 6,26" />
<polygon fill="#a1a9a0" fill-opacity="0.501961" points="161,90 166,81 161,73" />
<polygon fill="#948e86" fill-opacity="0.501961" points="43,14 38,75 72,-8" />
<polygon fill="#6d5c44" fill-opacity="0.501961" points="54,42 59,64 66,48" />
<polygon fill="#231d0d" fill-opacity="0.501961" points="96,-12 102,10 96,21" />
<polygon fill="#b5a382" fill-opacity="0.501961" points="116,81 97,77 115,69" />
<polygon fill="#988778" fill-opacity="0.501961" points="124,66 138,47 123,93" />
<polygon fill="#ccd4d7" fill-opacity="0.501961" points="160,89 128,98 147,102" />
<polygon fill="#655a45" fill-opacity="0.501961" points="58,77 89,126 36,95" />
<polygon fill="#746b4d" fill-opacity="0.501961" points="64,20 73,27 77,25" />
<polygon fill="#877550" fill-opacity="0.501961" points="109,-15 88,-16 119,18" />
<polygon fill="#9f8a6d" fill-opacity="0.501961" points="136,76 115,105 115,88" />
<polygon fill="#c0a575" fill-opacity="0.501961" points="155,62 143,81 150,41" />
<polygon fill="#a7a78d" fill-opacity="0.501961" points="164,41 164,60 169,42" />
<polygon fill="#b4a387" fill-opacity="0.501961" points="101,45 127,46 98,68" />
<polygon fill="#b2aca6" fill-opacity="0.501961" points="12,126 29,112 36,90" />
<polygon fill="#dfd1b8" fill-opacity="0.501961" points="120,82 127,52 103,95" />
<polygon fill="#817156" fill-opacity="0.501961" points="102,41 93,23 88,60" />
<polygon fill="#867657" fill-opacity="0.501961" points="109,39 126,47 112,30" />
<polygon fill="#272d24" fill-opacity="0.501961" points="174,70 167,87 168,57" />
<polygon fill="#514a41" fill-opacity="0.501961" points="84,54 91,81 102,70" />
<polygon fill="#676959" fill-opacity="0.501961" points="74,92 103,92 92,98" />
<polygon fill="#715f41" fill-opacity="0.501961" points="142,43 151,50 133,76" />
<polygon fill="#060a02" fill-opacity="0.501961" points="126,23 122,26 117,23" />
<polygon fill="#8e897f" fill-opacity="0.501961" points="28,106 17,80 26,47" />
<polygon fill="#bfa67a" fill-opacity="0.501961" points="147,20 158,11 172,22" />
<polygon fill="#b2b4b4" fill-opacity="0.501961" points="6,77 4,45 -16,64" />
<polygon fill="#7f7f78" fill-opacity="0.501961" points="10,50 1,63 11,63" />
<polygon fill="#a6b1bf" fill-opacity="0.501961" points="0,15 -16,12 4,-11" />
<polygon fill="#615f5a" fill-opacity="0.501961" points="33,74 37,63 25,64" />
<polygon fill="#a6895e" fill-opacity="0.501961" points="159,31 151,45 146,26" />
<polygon fill="#000400" fill-opacity="0.501961" points="238,6 171,-16 182,80" />
<polygon fill="#677575" fill-opacity="0.501961" points="143,126 118,124 155,100" />
<polygon fill="#e5d1aa" fill-opacity="0.501961" points="167,42 152,56 160,21" />
<polygon fill="#131711" fill-opacity="0.501961" points="75,92 73,89 80,91" />
<polygon fill="#b4a583" fill-opacity="0.501961" points="101,29 121,12 107,33" />
<polygon fill="#4c3b1f" fill-opacity="0.501961" points="84,51 78,7 91,16" />
<polygon fill="#7b6e56" fill-opacity="0.501961" points="149,25 133,17 139,30" />
<polygon fill="#837e77" fill-opacity="0.501961" points="73,93 66,126 92,126" />
<polygon fill="#040603" fill-opacity="0.501961" points="226,92 204,42 165,24" />
<polygon fill="#c8bda6" fill-opacity="0.501961" points="149,79 138,89 127,81" />
<polygon fill="#d8cdb3" fill-opacity="0.501961" points="122,67 138,43 127,40" />
<polygon fill="#cdd1cd" fill-opacity="0.501961" points="97,80 114,92 100,91" />
<polygon fill="#b2a89d" fill-opacity="0.501961" points="39,82 42,54 45,70" />
<polygon fill="#0d1115" fill-opacity="0.501961" points="107,72 109,68 101,72" />
<polygon fill="#111718" fill-opacity="0.501961" points="90,86 85,93 93,89" />
<polygon fill="#efeddc" fill-opacity="0.501961" points="149,83 162,56 166,65" />
<polygon fill="#000000" fill-opacity="0.501961" points="127,20 125,19 122,24" />
<polygon fill="#cab8aa" fill-opacity="0.501961" points="51,-7 45,11 44,-16" />
<polygon fill="#948363" fill-opacity="0.501961" points="92,0 83,9 89,-16" />
<polygon fill="#c9b793" fill-opacity="0.501961" points="125,15 125,8 136,19" />
<polygon fill="#a69270" fill-opacity="0.501961" points="109,60 118,62 115,31" />
<polygon fill="#a8a78d" fill-opacity="0.501961" points="164,27 168,41 168,27" />
<polygon fill="#d5c9b7" fill-opacity="0.501961" points="106,54 120,70 103,64" />
</g>
</svg>